<svg xmlns="http://www.w3.org/2000/svg" width="682.667" height="682.667" version="1.0" viewBox="0 0 512 512"><path d="M233 1c-33 3.4-63.2 12.1-91.5 26.4C49.8 73.8-5.7 170.4 1.1 271.7c4.2 63.8 29.4 119.7 74.4 164.9 39.4 39.7 88.6 64.3 146.2 73.1 15.6 2.4 53.6 2.3 69.8-.1C376.8 497 448.2 445.3 486 368.5c17.7-35.9 26-71.7 26-112.5s-8.3-76.6-26-112.5c-37.8-76.6-109.7-129-194-141C278.6.6 245.3-.3 233 1zm37 105.5c55.5 10.8 97.7 51.5 110.8 106.8 2.3 10 2.6 13.2 2.7 30.2 0 14.9-.4 20.8-1.9 27.5-4.9 22.7-13 40-28.5 61.2-1.3 1.8.6 3.9 26.7 30.2l28.2 28.2v4.8c0 2.7-.7 5.7-1.6 7.2-3.2 4.7-9.9 6.7-14.7 4.3-1.2-.6-14.6-13.4-29.7-28.4l-27.5-27.4-8 6c-15.3 11.3-36.8 20.4-58 24.5-12.1 2.4-35.6 2.4-48.5 0-37.9-6.8-71.9-29.3-92.5-61.1-15.6-23.9-22.5-47.4-22.6-76.2 0-16.8 1.9-29.5 6.7-44.1 16.7-51.1 62.1-88.4 116.2-95.2 9.6-1.2 32.2-.4 42.2 1.5z"/><path d="M225.8 129.6c-23.7 3.6-45.4 14.9-63.4 32.8-22.1 22-33.7 49.9-33.7 81.1 0 14 1.4 23.6 5.4 35.6 13.3 41.1 46.9 70.5 89.9 79 9.7 1.9 32.8 1.6 43-.5 35.3-7.5 65.5-30.6 81.4-62.4 7.2-14.3 11.6-33.8 11.6-51.2 0-71.5-63.3-125.5-134.2-114.4z"/></svg>